<svg id="visual" viewBox="0 0 900 200" width="900" height="200" xmlns="http://www.w3.org/2000/svg" xmlns:xlink="http://www.w3.org/1999/xlink" version="1.1"><rect x="0" y="0" width="900" height="200" fill="#001220"></rect><path d="M0 112L21.5 114.5C43 117 86 122 128.8 128.7C171.7 135.3 214.3 143.7 257.2 149.5C300 155.3 343 158.7 385.8 148.7C428.7 138.7 471.3 115.3 514.2 116.3C557 117.3 600 142.7 642.8 147C685.7 151.3 728.3 134.7 771.2 132.3C814 130 857 142 878.5 148L900 154L900 0L878.5 0C857 0 814 0 771.2 0C728.3 0 685.7 0 642.8 0C600 0 557 0 514.2 0C471.3 0 428.7 0 385.8 0C343 0 300 0 257.2 0C214.3 0 171.7 0 128.8 0C86 0 43 0 21.5 0L0 0Z" fill="#c62368"></path><path d="M0 106L21.5 102.2C43 98.3 86 90.7 128.8 87.7C171.7 84.7 214.3 86.3 257.2 88.3C300 90.3 343 92.7 385.8 96.2C428.7 99.7 471.3 104.3 514.2 102.5C557 100.7 600 92.3 642.8 86.7C685.7 81 728.3 78 771.2 87.7C814 97.3 857 119.7 878.5 130.8L900 142L900 0L878.5 0C857 0 814 0 771.2 0C728.3 0 685.7 0 642.8 0C600 0 557 0 514.2 0C471.3 0 428.7 0 385.8 0C343 0 300 0 257.2 0C214.3 0 171.7 0 128.8 0C86 0 43 0 21.5 0L0 0Z" fill="#d53867"></path><path d="M0 106L21.5 102C43 98 86 90 128.8 82C171.7 74 214.3 66 257.2 70C300 74 343 90 385.8 91.7C428.7 93.3 471.3 80.7 514.2 76.7C557 72.7 600 77.3 642.8 84C685.7 90.7 728.3 99.3 771.2 102.8C814 106.3 857 104.7 878.5 103.8L900 103L900 0L878.5 0C857 0 814 0 771.2 0C728.3 0 685.7 0 642.8 0C600 0 557 0 514.2 0C471.3 0 428.7 0 385.8 0C343 0 300 0 257.2 0C214.3 0 171.7 0 128.8 0C86 0 43 0 21.5 0L0 0Z" fill="#e34c67"></path><path d="M0 58L21.5 60.3C43 62.7 86 67.3 128.8 63.8C171.7 60.3 214.3 48.7 257.2 46.8C300 45 343 53 385.8 54.7C428.7 56.3 471.3 51.7 514.2 54.5C557 57.3 600 67.7 642.8 68.7C685.7 69.7 728.3 61.3 771.2 61.8C814 62.3 857 71.7 878.5 76.3L900 81L900 0L878.5 0C857 0 814 0 771.2 0C728.3 0 685.7 0 642.8 0C600 0 557 0 514.2 0C471.3 0 428.7 0 385.8 0C343 0 300 0 257.2 0C214.3 0 171.7 0 128.8 0C86 0 43 0 21.5 0L0 0Z" fill="#ef5f67"></path><path d="M0 52L21.5 48.7C43 45.3 86 38.7 128.8 32C171.7 25.3 214.3 18.7 257.2 21.3C300 24 343 36 385.8 41.7C428.7 47.3 471.3 46.7 514.2 41.2C557 35.7 600 25.3 642.8 22.5C685.7 19.7 728.3 24.3 771.2 25.5C814 26.7 857 24.3 878.5 23.2L900 22L900 0L878.5 0C857 0 814 0 771.2 0C728.3 0 685.7 0 642.8 0C600 0 557 0 514.2 0C471.3 0 428.7 0 385.8 0C343 0 300 0 257.2 0C214.3 0 171.7 0 128.8 0C86 0 43 0 21.5 0L0 0Z" fill="#fa7268"></path></svg>