<svg id="visual" viewBox="0 0 900 200" width="900" height="200" xmlns="http://www.w3.org/2000/svg" xmlns:xlink="http://www.w3.org/1999/xlink" version="1.1"><rect x="0" y="0" width="900" height="200" fill="#001220"></rect><path d="M0 86L21.5 83.5C43 81 86 76 128.8 69.3C171.7 62.7 214.3 54.3 257.2 48.5C300 42.7 343 39.3 385.8 49.3C428.7 59.3 471.3 82.7 514.2 81.7C557 80.7 600 55.3 642.8 51C685.7 46.7 728.3 63.3 771.2 65.7C814 68 857 56 878.5 50L900 44L900 201L878.5 201C857 201 814 201 771.2 201C728.3 201 685.7 201 642.8 201C600 201 557 201 514.2 201C471.3 201 428.7 201 385.8 201C343 201 300 201 257.2 201C214.3 201 171.7 201 128.8 201C86 201 43 201 21.5 201L0 201Z" fill="#c62368"></path><path d="M0 92L21.5 95.8C43 99.7 86 107.3 128.8 110.3C171.7 113.3 214.3 111.7 257.2 109.7C300 107.7 343 105.3 385.8 101.8C428.7 98.3 471.3 93.7 514.2 95.5C557 97.3 600 105.7 642.8 111.3C685.7 117 728.3 120 771.2 110.3C814 100.7 857 78.3 878.5 67.2L900 56L900 201L878.5 201C857 201 814 201 771.2 201C728.3 201 685.7 201 642.8 201C600 201 557 201 514.2 201C471.3 201 428.7 201 385.8 201C343 201 300 201 257.2 201C214.3 201 171.7 201 128.8 201C86 201 43 201 21.5 201L0 201Z" fill="#d53867"></path><path d="M0 92L21.5 96C43 100 86 108 128.8 116C171.7 124 214.3 132 257.2 128C300 124 343 108 385.8 106.3C428.7 104.7 471.3 117.3 514.2 121.3C557 125.3 600 120.7 642.8 114C685.7 107.3 728.3 98.7 771.2 95.2C814 91.7 857 93.3 878.5 94.2L900 95L900 201L878.5 201C857 201 814 201 771.2 201C728.3 201 685.7 201 642.8 201C600 201 557 201 514.2 201C471.3 201 428.7 201 385.8 201C343 201 300 201 257.2 201C214.3 201 171.7 201 128.8 201C86 201 43 201 21.5 201L0 201Z" fill="#e34c67"></path><path d="M0 140L21.5 137.7C43 135.3 86 130.7 128.8 134.2C171.7 137.7 214.3 149.3 257.2 151.2C300 153 343 145 385.8 143.3C428.7 141.7 471.3 146.3 514.2 143.5C557 140.7 600 130.3 642.8 129.3C685.7 128.3 728.3 136.7 771.2 136.2C814 135.7 857 126.3 878.5 121.7L900 117L900 201L878.5 201C857 201 814 201 771.2 201C728.3 201 685.7 201 642.8 201C600 201 557 201 514.2 201C471.3 201 428.7 201 385.8 201C343 201 300 201 257.2 201C214.3 201 171.7 201 128.8 201C86 201 43 201 21.5 201L0 201Z" fill="#ef5f67"></path><path d="M0 146L21.5 149.3C43 152.7 86 159.3 128.8 166C171.7 172.7 214.3 179.3 257.2 176.7C300 174 343 162 385.8 156.3C428.7 150.7 471.3 151.3 514.2 156.8C557 162.3 600 172.7 642.8 175.5C685.7 178.3 728.3 173.7 771.2 172.5C814 171.3 857 173.7 878.5 174.8L900 176L900 201L878.5 201C857 201 814 201 771.2 201C728.3 201 685.7 201 642.8 201C600 201 557 201 514.2 201C471.3 201 428.7 201 385.8 201C343 201 300 201 257.2 201C214.3 201 171.7 201 128.8 201C86 201 43 201 21.5 201L0 201Z" fill="#fa7268"></path></svg>